<svg xmlns="http://www.w3.org/2000/svg" width="1100" height="282" viewBox="0 0 1100 282">
<rect width="100%" height="100%" fill="white"/>
<text x="20" y="30" font-family="sans-serif" font-size="18" font-weight="bold">Mean charged wall time by profile</text>
<text x="20" y="70" font-family="monospace" font-size="12">b08-concrete</text>
<rect x="360" y="58" width="134.80" height="15" fill="#3366cc"/>
<text x="500.80" y="70" font-family="sans-serif" font-size="12">6.237/31</text>
<text x="20" y="94" font-family="monospace" font-size="12">b08-native</text>
<rect x="360" y="82" width="134.97" height="15" fill="#3366cc"/>
<text x="500.97" y="94" font-family="sans-serif" font-size="12">6.245/31</text>
<text x="20" y="118" font-family="monospace" font-size="12">b08-symbolic-q075</text>
<rect x="360" y="106" width="134.37" height="15" fill="#3366cc"/>
<text x="500.37" y="118" font-family="sans-serif" font-size="12">6.217/31</text>
<text x="20" y="142" font-family="monospace" font-size="12">b32-concrete</text>
<rect x="360" y="130" width="666.71" height="15" fill="#3366cc"/>
<text x="1032.71" y="142" font-family="sans-serif" font-size="12">30.848/31</text>
<text x="20" y="166" font-family="monospace" font-size="12">b32-native</text>
<rect x="360" y="154" width="666.82" height="15" fill="#3366cc"/>
<text x="1032.82" y="166" font-family="sans-serif" font-size="12">30.853/31</text>
<text x="20" y="190" font-family="monospace" font-size="12">b32-symbolic-q050</text>
<rect x="360" y="178" width="666.00" height="15" fill="#3366cc"/>
<text x="1032.00" y="190" font-family="sans-serif" font-size="12">30.815/31</text>
<text x="20" y="214" font-family="monospace" font-size="12">b32-symbolic-q075</text>
<rect x="360" y="202" width="666.39" height="15" fill="#3366cc"/>
<text x="1032.39" y="214" font-family="sans-serif" font-size="12">30.833/31</text>
<text x="20" y="238" font-family="monospace" font-size="12">b32-symbolic-q150</text>
<rect x="360" y="226" width="666.22" height="15" fill="#3366cc"/>
<text x="1032.22" y="238" font-family="sans-serif" font-size="12">30.825/31</text>
</svg>
